<svg width="24" height="25" viewBox="0 0 24 25" fill="none" xmlns="http://www.w3.org/2000/svg">
<mask id="mask0_4087_6803" style="mask-type:alpha" maskUnits="userSpaceOnUse" x="0" y="0" width="24" height="25">
<rect y="0.740234" width="24" height="24" fill="#D9D9D9"/>
</mask>
<g mask="url(#mask0_4087_6803)">
<path d="M12 22.7402C10.6167 22.7402 9.31667 22.4777 8.1 21.9527C6.88333 21.4277 5.825 20.7152 4.925 19.8152C4.025 18.9152 3.3125 17.8569 2.7875 16.6402C2.2625 15.4236 2 14.1236 2 12.7402C2 11.3569 2.2625 10.0569 2.7875 8.84023C3.3125 7.62357 4.025 6.56523 4.925 5.66523C5.825 4.76523 6.88333 4.05273 8.1 3.52773C9.31667 3.00273 10.6167 2.74023 12 2.74023C13.0833 2.74023 14.1083 2.89857 15.075 3.21523C16.0417 3.5319 16.9333 3.97357 17.75 4.54023L16.3 6.01523C15.6667 5.61523 14.9917 5.30273 14.275 5.07773C13.5583 4.85273 12.8 4.74023 12 4.74023C9.78333 4.74023 7.89583 5.5194 6.3375 7.07773C4.77917 8.63607 4 10.5236 4 12.7402C4 14.9569 4.77917 16.8444 6.3375 18.4027C7.89583 19.9611 9.78333 20.7402 12 20.7402C14.2167 20.7402 16.1042 19.9611 17.6625 18.4027C19.2208 16.8444 20 14.9569 20 12.7402C20 12.4402 19.9833 12.1402 19.95 11.8402C19.9167 11.5402 19.8667 11.2486 19.8 10.9652L21.425 9.34023C21.6083 9.87357 21.75 10.4236 21.85 10.9902C21.95 11.5569 22 12.1402 22 12.7402C22 14.1236 21.7375 15.4236 21.2125 16.6402C20.6875 17.8569 19.975 18.9152 19.075 19.8152C18.175 20.7152 17.1167 21.4277 15.9 21.9527C14.6833 22.4777 13.3833 22.7402 12 22.7402ZM10.6 17.3402L6.35 13.0902L7.75 11.6902L10.6 14.5402L20.6 4.51523L22 5.91523L10.6 17.3402Z" fill="#43AD31"/>
</g>
</svg>
