<svg width="24" height="25" viewBox="0 0 24 25" fill="none" xmlns="http://www.w3.org/2000/svg">
<mask id="mask0_4087_7986" style="mask-type:alpha" maskUnits="userSpaceOnUse" x="0" y="0" width="24" height="25">
<rect y="0.740234" width="24" height="24" fill="#D9D9D9"/>
</mask>
<g mask="url(#mask0_4087_7986)">
<path d="M12 22.7402C10.6167 22.7402 9.31667 22.4777 8.1 21.9527C6.88333 21.4277 5.825 20.7152 4.925 19.8152C4.025 18.9152 3.3125 17.8569 2.7875 16.6402C2.2625 15.4236 2 14.1236 2 12.7402C2 11.3569 2.2625 10.0569 2.7875 8.84023C3.3125 7.62357 4.025 6.56523 4.925 5.66523C5.825 4.76523 6.88333 4.05273 8.1 3.52773C9.31667 3.00273 10.6167 2.74023 12 2.74023C13.3833 2.74023 14.6833 3.00273 15.9 3.52773C17.1167 4.05273 18.175 4.76523 19.075 5.66523C19.975 6.56523 20.6875 7.62357 21.2125 8.84023C21.7375 10.0569 22 11.3569 22 12.7402C22 14.1236 21.7375 15.4236 21.2125 16.6402C20.6875 17.8569 19.975 18.9152 19.075 19.8152C18.175 20.7152 17.1167 21.4277 15.9 21.9527C14.6833 22.4777 13.3833 22.7402 12 22.7402ZM12 20.7402C12.9 20.7402 13.7667 20.5944 14.6 20.3027C15.4333 20.0111 16.2 19.5902 16.9 19.0402L5.7 7.84023C5.15 8.54023 4.72917 9.3069 4.4375 10.1402C4.14583 10.9736 4 11.8402 4 12.7402C4 14.9736 4.775 16.8652 6.325 18.4152C7.875 19.9652 9.76667 20.7402 12 20.7402ZM18.3 17.6402C18.85 16.9402 19.2708 16.1736 19.5625 15.3402C19.8542 14.5069 20 13.6402 20 12.7402C20 10.5069 19.225 8.61523 17.675 7.06523C16.125 5.51523 14.2333 4.74023 12 4.74023C11.1 4.74023 10.2333 4.88607 9.4 5.17773C8.56667 5.4694 7.8 5.89023 7.1 6.44023L18.3 17.6402Z" fill="#E63C3C"/>
</g>
</svg>
