<svg width="915" height="237" viewBox="0 0 915 237" fill="none" xmlns="http://www.w3.org/2000/svg">
<mask id="mask0_4102_8530" style="mask-type:luminance" maskUnits="userSpaceOnUse" x="-28" y="0" width="711" height="237">
<path d="M682.273 0H-27.067V236.068H682.273V0Z" fill="white"/>
</mask>
<g mask="url(#mask0_4102_8530)">
</g>
<mask id="mask1_4102_8530" style="mask-type:luminance" maskUnits="userSpaceOnUse" x="-18" y="0" width="973" height="237">
<path d="M954.822 0H-17.239V236.068H954.822V0Z" fill="white"/>
</mask>
<g mask="url(#mask1_4102_8530)">
<path d="M571.667 36.0975L457.385 -43.2297L343.349 36.0975L229.066 -43.2297L114.783 36.0975L0.00830078 -43.6439L0.993495 -44.6795L114.783 34.2334L229.066 -45.0938L343.349 34.2334L457.385 -45.0938L571.667 34.2334L685.95 -45.0938L800.232 34.2334L914.022 -44.6795L915.008 -43.6439L800.232 36.0975L685.95 -43.2297L571.667 36.0975Z" fill="#1D438C" fill-opacity="0.23"/>
<path d="M571.667 62.1952L457.385 -17.3391L343.349 62.1952L229.066 -17.3391L114.783 62.1952L0.00830078 -17.5463L0.993495 -18.789L114.783 60.3311L229.066 -18.9961L343.349 60.3311L457.385 -18.9961L571.667 60.3311L685.95 -18.9961L800.232 60.3311L914.022 -18.789L915.008 -17.5463L800.232 62.1952L685.95 -17.3391L571.667 62.1952Z" fill="#1D438C" fill-opacity="0.23"/>
<path d="M571.667 88.2929L457.385 8.75862L343.349 88.2929L229.066 8.75862L114.783 88.2929L0.00830078 8.34437L0.993495 7.30877L114.783 86.4288L229.066 6.89453L343.349 86.4288L457.385 6.89453L571.667 86.4288L685.95 6.89453L800.232 86.4288L914.022 7.30877L915.008 8.34437L800.232 88.2929L685.95 8.75862L571.667 88.2929Z" fill="#1D438C" fill-opacity="0.23"/>
<path d="M571.667 114.182L457.385 34.8543L343.349 114.182L229.066 34.8543L114.783 114.182L0.00830078 34.4401L0.993495 33.4045L114.783 112.525L229.066 32.9902L343.349 112.525L457.385 32.9902L571.667 112.525L685.95 32.9902L800.232 112.525L914.022 33.4045L915.008 34.4401L800.232 114.182L685.95 34.8543L571.667 114.182Z" fill="#1D438C" fill-opacity="0.23"/>
<path d="M571.667 140.279L457.385 60.952L343.349 140.279L229.066 60.952L114.783 140.279L0.00830078 60.5377L0.993495 59.5021L114.783 138.415L229.066 59.0879L343.349 138.415L457.385 59.0879L571.667 138.415L685.95 59.0879L800.232 138.415L914.022 59.5021L915.008 60.5377L800.232 140.279L685.95 60.952L571.667 140.279Z" fill="#1D438C" fill-opacity="0.23"/>
<path d="M571.667 166.377L457.385 86.8425L343.349 166.377L229.066 86.8425L114.783 166.377L0.00830078 86.6354L0.993495 85.3927L114.783 164.513L229.066 85.1855L343.349 164.513L457.385 85.1855L571.667 164.513L685.95 85.1855L800.232 164.513L914.022 85.3927L915.008 86.6354L800.232 166.377L685.95 86.8425L571.667 166.377Z" fill="#1D438C" fill-opacity="0.23"/>
<path d="M571.667 192.267L457.385 112.94L343.349 192.267L229.066 112.94L114.783 192.267L0.00830078 112.526L0.993495 111.49L114.783 190.61L229.066 111.076L343.349 190.61L457.385 111.076L571.667 190.61L685.95 111.076L800.232 190.61L914.022 111.49L915.008 112.526L800.232 192.267L685.95 112.94L571.667 192.267Z" fill="#1D438C" fill-opacity="0.23"/>
<path d="M571.667 218.363L457.385 139.036L343.349 218.363L229.066 139.036L114.783 218.363L0.00830078 138.622L0.993495 137.586L114.783 216.706L229.066 137.172L343.349 216.706L457.385 137.172L571.667 216.706L685.95 137.172L800.232 216.706L914.022 137.586L915.008 138.622L800.232 218.363L685.95 139.036L571.667 218.363Z" fill="#1D438C" fill-opacity="0.23"/>
<path d="M571.667 244.461L457.385 165.134L343.349 244.461L229.066 165.134L114.783 244.461L0.00830078 164.719L0.993495 163.684L114.783 242.597L229.066 163.27L343.349 242.597L457.385 163.27L571.667 242.597L685.95 163.27L800.232 242.597L914.022 163.684L915.008 164.719L800.232 244.461L685.95 165.134L571.667 244.461Z" fill="#1D438C" fill-opacity="0.23"/>
<path d="M571.667 270.558L457.385 191.024L343.349 270.558L229.066 191.024L114.783 270.558L0.00830078 190.817L0.993495 189.574L114.783 268.694L229.066 189.367L343.349 268.694L457.385 189.367L571.667 268.694L685.95 189.367L800.232 268.694L914.022 189.574L915.008 190.817L800.232 270.558L685.95 191.024L571.667 270.558Z" fill="#1D438C" fill-opacity="0.23"/>
<path d="M571.667 296.447L457.385 217.12L343.349 296.447L229.066 217.12L114.783 296.447L0.00830078 216.706L0.993495 215.67L114.783 294.79L229.066 215.256L343.349 294.79L457.385 215.256L571.667 294.79L685.95 215.256L800.232 294.79L914.022 215.67L915.008 216.706L800.232 296.447L685.95 217.12L571.667 296.447Z" fill="#1D438C" fill-opacity="0.23"/>
</g>
</svg>
